<svg id="Layer_3" data-name="Layer 3" xmlns="http://www.w3.org/2000/svg" viewBox="0 0 480.75 486"><defs><style>.cls-1{fill:#04346e;}.cls-2{fill:#078dd0;}</style></defs><title>icon-peer</title><path class="cls-1" d="M452.61,172.34H391.33a70.15,70.15,0,0,1-30-8.74c-5-2.82-23.73-13.69-31.14-36.39a59.39,59.39,0,0,1-2.8-15.07V44A37.57,37.57,0,0,0,289.92,6.5H211.59A37.57,37.57,0,0,0,174.12,44v84.62a37.58,37.58,0,0,0,37.47,37.47h70a53.83,53.83,0,0,1,11.35,1.75c18.33,4.86,33.73,19.19,40.36,36.66a57.76,57.76,0,0,1,3.55,16.38v73.59a37.58,37.58,0,0,0,37.47,37.47h78.32a37.58,37.58,0,0,0,37.47-37.47V209.81A37.58,37.58,0,0,0,452.61,172.34Z" transform="translate(-9.33 -6.5)"/><path class="cls-2" d="M287.82,333H225a70.26,70.26,0,0,1-28.49-8.67c-5-2.81-23.73-13.68-31.14-36.38a59.45,59.45,0,0,1-2.76-14.42V204.56a37.57,37.57,0,0,0-37.46-37.46H46.79A37.56,37.56,0,0,0,9.33,204.56v84.62a37.57,37.57,0,0,0,37.46,37.47h65.78a55.64,55.64,0,0,1,15.51,1.83c18.33,4.87,33.72,19.2,40.35,36.67a58,58,0,0,1,3.6,16.74V455a37.57,37.57,0,0,0,37.46,37.47h78.33A37.58,37.58,0,0,0,325.28,455V370.41A37.57,37.57,0,0,0,287.82,333Z" transform="translate(-9.33 -6.5)"/></svg>