<svg xmlns="http://www.w3.org/2000/svg" viewBox="0 0 479.42 461"><defs><style>.cls-1{fill:#078dd0;}.cls-2{fill:#1060ac;}</style></defs><title>icon-bazaar</title><g id="Layer_3" data-name="Layer 3"><path class="cls-1" d="M487,147,398.12,99.19a24.27,24.27,0,0,0-23,0L295.53,142a106.28,106.28,0,0,1-17,4.63c-7.86,1.45-14.7,1.5-28.06,1.56-15.24.07-23,.07-31.19-1.56A95.52,95.52,0,0,1,202,141.51L123.45,99.19a24.27,24.27,0,0,0-23,0L11.57,147a3.78,3.78,0,0,0,0,6.65l87.24,47a27.66,27.66,0,0,0,26.26,0l77.56-41.76a88.17,88.17,0,0,1,18.18-6c8.31-1.77,16.56-1.73,32.74-1.56,12.52.13,18.9.24,24.95,1.56a77.26,77.26,0,0,1,18.83,6.76l76.15,41a27.66,27.66,0,0,0,26.26,0l87.24-47A3.78,3.78,0,0,0,487,147Z" transform="translate(-9.58 -20)"/><path class="cls-1" d="M242.69,21.15,185.35,51a3.14,3.14,0,0,0,0,5.56c11.81,6.32,39.42,15.72,66.32,16,28.4.25,51.91-9.84,64.54-16.24a2.91,2.91,0,0,0,0-5.17c-19-10-43.2-21.61-61.93-29.92A15.24,15.24,0,0,0,242.69,21.15Z" transform="translate(-9.58 -20)"/><path class="cls-2" d="M487,347.48l-87.2-47a27.69,27.69,0,0,0-26.26,0L296,342.12a88.58,88.58,0,0,1-18.19,6c-8.31,1.77-16.57,1.72-32.74,1.54-12.52-.14-18.9-.26-24.95-1.58a77.35,77.35,0,0,1-18.83-6.78l-76.12-41.05a27.67,27.67,0,0,0-26.25,0L11.6,347.13a3.78,3.78,0,0,0,0,6.65l88.83,47.92a24.3,24.3,0,0,0,23,0L203,358.93a104.8,104.8,0,0,1,17-4.62c7.85-1.44,14.7-1.5,28.06-1.54,15.24-.06,23-.06,31.18,1.58a95.72,95.72,0,0,1,17.22,5.18l78.55,42.37a24.27,24.27,0,0,0,23,0L487,354.14A3.78,3.78,0,0,0,487,347.48Z" transform="translate(-9.58 -20)"/><path class="cls-2" d="M313.18,444.52c-11.81-6.32-39.41-15.74-66.3-16-28.41-.27-51.92,9.8-64.56,16.19a2.91,2.91,0,0,0,0,5.17c19,10,43.19,21.64,61.91,30a15.2,15.2,0,0,0,11.61,0l57.36-29.76A3.15,3.15,0,0,0,313.18,444.52Z" transform="translate(-9.58 -20)"/><path class="cls-2" d="M239.93,285.6l-55.36-25.15a3.13,3.13,0,0,1-.09-5.69l53.32-25.55a28,28,0,0,1,23.63-.28l55.4,24.95a3.13,3.13,0,0,1,.1,5.66l-53.81,25.53A27.46,27.46,0,0,1,239.93,285.6Z" transform="translate(-9.58 -20)"/></g></svg>