<svg xmlns="http://www.w3.org/2000/svg" viewBox="0 0 993.57 967.95"><defs><style>.cls-1{fill:#078dd0;}.cls-2{fill:none;}.cls-2,.cls-3{stroke:#168bca;stroke-miterlimit:10;}.cls-3,.cls-4{fill:#fff;}.cls-5{fill:#1e386b;}.cls-6{fill:#168bca;}.cls-7{fill:#1a62ab;}.cls-8{fill:#1060ac;}</style></defs><title>icon-router</title><g id="Layer_8" data-name="Layer 8"><circle class="cls-1" cx="237.42" cy="748.45" r="218.5"/></g><g id="Layer_7" data-name="Layer 7"><circle class="cls-2" cx="237.92" cy="748.95" r="218.5"/><polygon class="cls-3" points="261.92 793.95 294.92 767.95 294.92 738.95 261.92 766.95 261.92 793.95"/><polygon class="cls-3" points="179.92 737.95 212.92 763.95 212.92 792.95 179.92 764.95 179.92 737.95"/><polygon class="cls-4" points="141.99 669.88 116.92 669.95 142.06 669.95 141.99 669.88"/><path class="cls-4" d="M368.61,782.4V686.88h.11c-.33-1.65-.86-4-1.72-6.88-2.69-8.85-9.06-23.5-39-48-5.14-4.21-23.81-19.2-53-35-11.12-6-20.68-10.48-27.5-13.5-7.64,3.12-18.41,7.75-31,14-20.27,10.06-37.95,19-57,35-30,25.25-32.54,42.14-33,48a44.59,44.59,0,0,0,0,7l25.07-.06.07.06H126.5v95.9L71.61,832.79l92.48,82.61,58.41-50.9L166,815.73V700.08l81.5,71.42,81.61-71.11V814.73l-56.5,48.77L331,914.4l92.47-82.61Z" transform="translate(-9.58 -17.55)"/></g><g id="Layer_4" data-name="Layer 4"><path class="cls-5" d="M689,472.2a2.33,2.33,0,0,1-1.39,3.7c-2,.41-3.66.73-4.93,1a502.88,502.88,0,0,1-65.59,8.19A66.25,66.25,0,0,1,578,472.72c-22-16-25.85-40.31-26.48-45,0,0,0-.08,0-.12a448.59,448.59,0,0,1-7.3-55.39,2.32,2.32,0,0,1,3.19-2.31,402,402,0,0,1,44.41,21.34c15.82,8.83,38.35,21.59,62.93,43.9A292.75,292.75,0,0,1,689,472.2Z" transform="translate(-9.58 -17.55)"/><path class="cls-6" d="M951.27,333.26a3.41,3.41,0,0,0,5.4,1.08c15.65-14.43,28.21-27.56,37.54-37.84a38.24,38.24,0,0,0,8.2-16.39c.45-2,1.42-7.24,0-16.4a78.57,78.57,0,0,0-8.2-24.6c-11.32-21.67-18.57-35.55-28.22-49.23-5.14-7.28-9.56-12.51-12.77-16.36,0,0-9.68-11.6-21.2-23C861,80.23,779.82,43.69,779.82,43.69s-50.63-22.8-105.36-25.95a70.37,70.37,0,0,0-31.59,4.73,64.73,64.73,0,0,0-13,7.17,3.89,3.89,0,0,0-.49.42,228.68,228.68,0,0,0-28.72,36.88c-2.15,3.43-4,6.67-4,6.67s-.5.89-1.22,2.21a3.4,3.4,0,0,0,2.43,5,521.89,521.89,0,0,1,94.89,25.1c39,14.35,124.59,47,196.1,130.24A422.34,422.34,0,0,1,951.27,333.26Z" transform="translate(-9.58 -17.55)"/><path class="cls-7" d="M566.91,170.21a1.75,1.75,0,0,0-2.23,1.29c-8.3,37.15-13.08,68.84-13.08,68.84-.4,2.59-1.12,7.44-2,14a1.75,1.75,0,0,0,1.19,1.89,494.57,494.57,0,0,1,77.56,32.57c58,30.39,94.46,64.17,102.44,71.71A428.82,428.82,0,0,1,796,438.75a1.73,1.73,0,0,0,2.16.65c12.74-5.69,26.22-12.29,40.24-19.92,7.8-4.24,20-11.13,35.16-20.86a1.77,1.77,0,0,0,.54-2.41A485.77,485.77,0,0,0,804,307.84c-52.7-52.37-104.66-79.64-137.57-96.58A639.22,639.22,0,0,0,566.91,170.21Z" transform="translate(-9.58 -17.55)"/></g><g id="Layer_3" data-name="Layer 3"><path class="cls-1" d="M487,147,398.12,99.19a24.27,24.27,0,0,0-23,0L295.53,142a106.28,106.28,0,0,1-17,4.63c-7.86,1.45-14.7,1.5-28.06,1.56-15.24.07-23,.07-31.19-1.56A95.52,95.52,0,0,1,202,141.51L123.45,99.19a24.27,24.27,0,0,0-23,0L11.57,147a3.78,3.78,0,0,0,0,6.65l87.24,47a27.66,27.66,0,0,0,26.26,0l77.56-41.76a88.17,88.17,0,0,1,18.18-6c8.31-1.77,16.56-1.73,32.74-1.56,12.52.13,18.9.24,24.95,1.56a77.26,77.26,0,0,1,18.83,6.76l76.15,41a27.66,27.66,0,0,0,26.26,0l87.24-47A3.78,3.78,0,0,0,487,147Z" transform="translate(-9.58 -17.55)"/><path class="cls-1" d="M242.69,21.15,185.35,51a3.14,3.14,0,0,0,0,5.56c11.81,6.32,39.42,15.72,66.32,16,28.4.25,51.91-9.84,64.54-16.24a2.91,2.91,0,0,0,0-5.17c-19-10-43.2-21.61-61.93-29.92A15.24,15.24,0,0,0,242.69,21.15Z" transform="translate(-9.58 -17.55)"/><path class="cls-8" d="M487,347.48l-87.2-47a27.69,27.69,0,0,0-26.26,0L296,342.12a88.58,88.58,0,0,1-18.19,6c-8.31,1.77-16.57,1.72-32.74,1.54-12.52-.14-18.9-.26-24.95-1.58a77.35,77.35,0,0,1-18.83-6.78l-76.12-41.05a27.67,27.67,0,0,0-26.25,0L11.6,347.13a3.78,3.78,0,0,0,0,6.65l88.83,47.92a24.3,24.3,0,0,0,23,0L203,358.93a104.8,104.8,0,0,1,17-4.62c7.85-1.44,14.7-1.5,28.06-1.54,15.24-.06,23-.06,31.18,1.58a95.72,95.72,0,0,1,17.22,5.18l78.55,42.37a24.27,24.27,0,0,0,23,0L487,354.14A3.78,3.78,0,0,0,487,347.48Z" transform="translate(-9.58 -17.55)"/><path class="cls-8" d="M313.18,444.52c-11.81-6.32-39.41-15.74-66.3-16-28.41-.27-51.92,9.8-64.56,16.19a2.91,2.91,0,0,0,0,5.17c19,10,43.19,21.64,61.91,30a15.2,15.2,0,0,0,11.61,0l57.36-29.76A3.15,3.15,0,0,0,313.18,444.52Z" transform="translate(-9.58 -17.55)"/><path class="cls-8" d="M239.93,285.6l-55.36-25.15a3.13,3.13,0,0,1-.09-5.69l53.32-25.55a28,28,0,0,1,23.63-.28l55.4,24.95a3.13,3.13,0,0,1,.1,5.66l-53.81,25.53A27.46,27.46,0,0,1,239.93,285.6Z" transform="translate(-9.58 -17.55)"/></g></svg>